<svg data-name="Layer 1" xmlns="http://www.w3.org/2000/svg" xmlns:xlink="http://www.w3.org/1999/xlink" viewBox="0 0 1500 1500"><defs><linearGradient id="a" x1="280.4" y1="953" x2="820.2" y2="953" gradientUnits="userSpaceOnUse"><stop offset="0" stop-color="#ea3033"/><stop offset="1" stop-color="#faa331"/></linearGradient><linearGradient id="b" x1="743.7" y1="1328.9" x2="743.7" y2="156.9" xlink:href="#a"/></defs><path d="M728 868c30 69 3 135-59 156-33 11-65 10-96-5-30-15-54-34-73-56-32-39-49-87-56-142-8-53 0-106 14-161l-46 31c-88 64-138 150-131 261a384 384 0 0 0 18 95c126 282 396 181 396 181 261-115 33-360 33-360Z" style="fill:url(#a)"/><path d="M1172 777a582 582 0 0 0-171-278c-58-54-119-104-178-156-55-49-98-103-86-186-39 29-77 58-111 91a336 336 0 0 0-26 450c25 34 56 63 83 96 17 23 34 48 45 74 0 0 228 245-33 360 0 0-270 101-396-181 23 69 65 128 126 177a481 481 0 0 0 375 100c235-28 450-244 372-547Z" style="fill:url(#b)"/></svg>